<svg xmlns="http://www.w3.org/2000/svg" viewBox="0 0 391.59 62.76"><defs><style>.cls-1{fill:#52ad28;}</style></defs><title>Recurso 1</title><g id="Capa_2" data-name="Capa 2"><g id="Capa_1-2" data-name="Capa 1"><polygon class="cls-1" points="138.74 60.53 149.6 60.53 149.6 44.51 127.72 19.68 113.29 19.68 138.74 50.01 138.74 60.53"/><polygon class="cls-1" points="151.31 35.32 178.98 2.29 164.78 2.29 143.94 27.16 151.31 35.32"/><polygon class="cls-1" points="94.43 60.53 83.57 60.53 83.57 13.13 77.49 2.23 136.95 2.23 127.9 13.13 94.43 13.13 94.43 60.53"/><polygon class="cls-1" points="74.17 13.13 54.03 13.13 48.03 2.23 68.11 2.23 74.17 13.13"/><polygon class="cls-1" points="27.93 2.31 37.92 2.23 63.28 47.91 51.43 47.91 33.05 18.28 11.77 60.53 0 60.53 27.93 2.31"/><path class="cls-1" d="M237.61,3.88l5.76,10.91h-3.83l-.81-1.61H233l-.8,1.61h-3.84l5.78-10.91Zm-.32,6.42-1.43-2.86-1.43,2.86Z"/><path class="cls-1" d="M251.5,6.94a2.21,2.21,0,0,0-.95.18,1.49,1.49,0,0,0-.58.5,2.24,2.24,0,0,0-.3.76,5.61,5.61,0,0,0-.08.95,5.86,5.86,0,0,0,.08,1,2.16,2.16,0,0,0,.3.76,1.49,1.49,0,0,0,.58.5,2.06,2.06,0,0,0,.95.19h2.8a2.62,2.62,0,0,0,1.17-.23,1,1,0,0,0,.55-.74h-4.61v-2h8.27v6h-2.06l-.41-.95a5.49,5.49,0,0,1-1,.5,8,8,0,0,1-1,.29,8.47,8.47,0,0,1-1,.13l-.85,0h-1.75c-.33,0-.69,0-1.11-.06a5.88,5.88,0,0,1-2.5-.79A4.06,4.06,0,0,1,247,13a5.14,5.14,0,0,1-.76-1.5A7.14,7.14,0,0,1,246,9.33a7.08,7.08,0,0,1,.28-2.14,5,5,0,0,1,.76-1.5,4.06,4.06,0,0,1,1.08-1,5.88,5.88,0,0,1,2.5-.79c.42,0,.78-.06,1.11-.06H254c.3,0,.63,0,1,.05a6.4,6.4,0,0,1,1.12.19,6.57,6.57,0,0,1,1.14.42,3.93,3.93,0,0,1,1.05.74,4.3,4.3,0,0,1,.83,1.14,5.29,5.29,0,0,1,.5,1.63H256a1.14,1.14,0,0,0-.56-.88,2.49,2.49,0,0,0-1.2-.23Z"/><polygon class="cls-1" points="276.06 3.88 276.06 6.78 267.73 6.78 267.73 8.05 276.06 8.05 276.06 10.48 267.73 10.48 267.73 11.88 276.06 11.88 276.06 14.79 264.25 14.79 264.25 3.88 276.06 3.88"/><polygon class="cls-1" points="290.96 3.88 294.44 3.88 294.44 14.79 289.59 14.79 284.1 7.62 284.1 14.79 280.62 14.79 280.62 3.88 285.49 3.88 290.96 11.04 290.96 3.88"/><path class="cls-1" d="M304.25,6.94a2.17,2.17,0,0,0-.95.18,1.46,1.46,0,0,0-.57.5,2.05,2.05,0,0,0-.3.76,4.74,4.74,0,0,0-.08.95,5,5,0,0,0,.08,1,2,2,0,0,0,.3.76,1.46,1.46,0,0,0,.57.5,2,2,0,0,0,.95.19H307a4,4,0,0,0,.74-.06,1.42,1.42,0,0,0,.53-.23,1.14,1.14,0,0,0,.34-.43,2.31,2.31,0,0,0,.22-.7h3.66a5.66,5.66,0,0,1-.46,1.75,4.57,4.57,0,0,1-.82,1.22,3.88,3.88,0,0,1-1.05.78,5.23,5.23,0,0,1-1.17.45,6.08,6.08,0,0,1-1.15.21c-.38,0-.72,0-1,0h-2.37c-.33,0-.69,0-1.1-.06a5.82,5.82,0,0,1-1.26-.24,5.66,5.66,0,0,1-1.24-.55,4.06,4.06,0,0,1-1.08-1,4.7,4.7,0,0,1-.76-1.5,6.82,6.82,0,0,1-.29-2.15A6.75,6.75,0,0,1,299,7.19a4.59,4.59,0,0,1,.76-1.5,4.06,4.06,0,0,1,1.08-1,5.66,5.66,0,0,1,1.24-.55,5.82,5.82,0,0,1,1.26-.24c.41,0,.77-.06,1.1-.06h2.37c.3,0,.64,0,1,.05a6.94,6.94,0,0,1,1.15.2,6.41,6.41,0,0,1,1.17.45,4.14,4.14,0,0,1,1.05.79A4.57,4.57,0,0,1,312,6.59a5.66,5.66,0,0,1,.46,1.75h-3.66a1.56,1.56,0,0,0-.53-1.1,2.29,2.29,0,0,0-1.3-.3Z"/><rect class="cls-1" x="316.73" y="3.88" width="3.48" height="10.9"/><path class="cls-1" d="M333.13,3.88l5.77,10.91h-3.83l-.81-1.61H328.5l-.81,1.61h-3.83l5.78-10.91Zm-.31,6.42-1.43-2.86L330,10.3Z"/><path class="cls-1" d="M366,9.33a7.12,7.12,0,0,1-.29,2.15A5,5,0,0,1,365,13a4.06,4.06,0,0,1-1.08,1,5.46,5.46,0,0,1-1.24.55,5.73,5.73,0,0,1-1.25.24c-.42,0-.78.06-1.11.06h-8.1V3.88h8.1c.33,0,.69,0,1.11.06a5.73,5.73,0,0,1,1.25.24,5.46,5.46,0,0,1,1.24.55,4.06,4.06,0,0,1,1.08,1,4.81,4.81,0,0,1,.77,1.5A7.05,7.05,0,0,1,366,9.33m-5.55,2.42a2,2,0,0,0,.94-.19,1.56,1.56,0,0,0,.58-.5,2,2,0,0,0,.29-.76,4.92,4.92,0,0,0,.09-1,4.72,4.72,0,0,0-.09-.95,2,2,0,0,0-.29-.76,1.56,1.56,0,0,0-.58-.5,2.16,2.16,0,0,0-.94-.18H355.7v4.81Z"/><polygon class="cls-1" points="228.33 25.92 239.26 25.92 239.26 28.98 235.5 28.98 235.5 36.82 232 36.82 232 28.98 228.33 28.98 228.33 25.92"/><path class="cls-1" d="M256.32,30a4.79,4.79,0,0,1-.22,1.55,3.74,3.74,0,0,1-.61,1.1,3.17,3.17,0,0,1-.88.72,4.31,4.31,0,0,1-1,.43l3.3,3h-4.54l-2.86-2.74h-2.6v2.74h-3.5V25.92h7.77c.32,0,.68,0,1.06,0a6.63,6.63,0,0,1,1.16.17,5.71,5.71,0,0,1,1.11.41,3.23,3.23,0,0,1,1.6,1.85,4.5,4.5,0,0,1,.25,1.61m-9.45,1h3.92a8,8,0,0,0,.94,0,1.4,1.4,0,0,0,.58-.15.69.69,0,0,0,.3-.31,1.54,1.54,0,0,0,.08-.52,1.45,1.45,0,0,0-.08-.52.64.64,0,0,0-.3-.31,1.55,1.55,0,0,0-.58-.16c-.24,0-.55,0-.94,0h-3.92Z"/><path class="cls-1" d="M268.88,25.92l5.76,10.9h-3.83l-.8-1.6h-5.76l-.81,1.6h-3.83l5.78-10.9Zm-.32,6.41-1.43-2.85-1.43,2.85Z"/><polygon class="cls-1" points="288.63 25.92 292.11 25.92 292.11 36.82 287.26 36.82 281.77 29.66 281.77 36.82 278.29 36.82 278.29 25.92 283.16 25.92 288.63 33.08 288.63 25.92"/><path class="cls-1" d="M299.85,29.48a.54.54,0,0,0,.37.5,4.59,4.59,0,0,0,1,.14q.62,0,1.41,0c.53,0,1.06,0,1.6.07a12.26,12.26,0,0,1,1.61.25,4.49,4.49,0,0,1,1.4.58,3,3,0,0,1,1,1.06,2.92,2.92,0,0,1,.37,1.57,4.07,4.07,0,0,1,0,.67,2.42,2.42,0,0,1-.23.74,3.14,3.14,0,0,1-.53.73,3,3,0,0,1-.91.61,5.61,5.61,0,0,1-1.41.43,10.44,10.44,0,0,1-2,.16h-1.93a8.28,8.28,0,0,1-2-.2,5.41,5.41,0,0,1-1.4-.51,3.08,3.08,0,0,1-.91-.72,3.55,3.55,0,0,1-.53-.84,2.8,2.8,0,0,1-.23-.82,5,5,0,0,1-.06-.71h3.48a1.42,1.42,0,0,0,.15.34.76.76,0,0,0,.3.29,1.63,1.63,0,0,0,.53.21,3.53,3.53,0,0,0,.8.08h2.43a2,2,0,0,0,.79-.11.37.37,0,0,0,.22-.35.58.58,0,0,0-.37-.54,4.43,4.43,0,0,0-1-.16c-.41,0-.88,0-1.4,0a14.44,14.44,0,0,1-1.6-.06,12,12,0,0,1-1.61-.24,4.48,4.48,0,0,1-1.4-.57,2.91,2.91,0,0,1-1-1,3,3,0,0,1-.37-1.56,4.28,4.28,0,0,1,.15-1.06,2.34,2.34,0,0,1,.66-1.09,4.1,4.1,0,0,1,1.55-.86,8.89,8.89,0,0,1,2.77-.35h1.94a8.28,8.28,0,0,1,2,.2,5.18,5.18,0,0,1,1.4.52,3.22,3.22,0,0,1,.91.72,3.62,3.62,0,0,1,.53.83,3,3,0,0,1,.23.83,4.67,4.67,0,0,1,.05.72h-3.48a1,1,0,0,0-.44-.68A2.67,2.67,0,0,0,303.3,29h-2.43a2.14,2.14,0,0,0-.8.1.38.38,0,0,0-.22.36"/><path class="cls-1" d="M320.62,25.92c.32,0,.68,0,1.06,0a6.49,6.49,0,0,1,1.16.17,5.57,5.57,0,0,1,1.12.41,3.32,3.32,0,0,1,1,.72,3.66,3.66,0,0,1,.66,1.13,5.31,5.31,0,0,1,0,3.22,3.61,3.61,0,0,1-.66,1.12,3.18,3.18,0,0,1-1,.73,5,5,0,0,1-1.12.4,7.56,7.56,0,0,1-1.16.18c-.38,0-.74,0-1.06,0h-4.27v2.74h-3.5V25.92Zm-.35,5.1a8,8,0,0,0,.94,0,1.4,1.4,0,0,0,.58-.15.69.69,0,0,0,.3-.31,1.54,1.54,0,0,0,.08-.52,1.45,1.45,0,0,0-.08-.52.64.64,0,0,0-.3-.31,1.55,1.55,0,0,0-.58-.16c-.24,0-.55,0-.94,0h-3.92V31Z"/><path class="cls-1" d="M337.86,25.92c.33,0,.69,0,1.1,0a6.39,6.39,0,0,1,1.26.25,5.74,5.74,0,0,1,1.25.55,4.06,4.06,0,0,1,1.08,1,5,5,0,0,1,.76,1.5,7.08,7.08,0,0,1,.28,2.14,7.14,7.14,0,0,1-.28,2.15,5.27,5.27,0,0,1-.76,1.5,4.06,4.06,0,0,1-1.08,1,5.74,5.74,0,0,1-1.25.55,6.35,6.35,0,0,1-1.26.24c-.41,0-.77,0-1.1,0h-2.35c-.33,0-.7,0-1.11,0a6.26,6.26,0,0,1-1.25-.24A5.74,5.74,0,0,1,331.9,36a4.06,4.06,0,0,1-1.08-1,5.27,5.27,0,0,1-.76-1.5,8.08,8.08,0,0,1,0-4.29,5,5,0,0,1,.76-1.5,4.06,4.06,0,0,1,1.08-1,5.74,5.74,0,0,1,1.25-.55A6.29,6.29,0,0,1,334.4,26c.41,0,.78,0,1.11,0Zm.19,7.87a2.2,2.2,0,0,0,.95-.19,1.49,1.49,0,0,0,.58-.5,2.21,2.21,0,0,0,.3-.77,5.74,5.74,0,0,0,0-1.91,2.24,2.24,0,0,0-.3-.76,1.49,1.49,0,0,0-.58-.5,2.2,2.2,0,0,0-.95-.19h-2.73a2.2,2.2,0,0,0-.95.19,1.49,1.49,0,0,0-.58.5,2.24,2.24,0,0,0-.3.76,5.74,5.74,0,0,0,0,1.91,2.21,2.21,0,0,0,.3.77,1.49,1.49,0,0,0,.58.5,2.2,2.2,0,0,0,.95.19Z"/><path class="cls-1" d="M360.8,30a4.79,4.79,0,0,1-.22,1.55,3.74,3.74,0,0,1-.61,1.1,3,3,0,0,1-.88.72,4.15,4.15,0,0,1-1,.43l3.3,3h-4.54L354,34.08h-2.6v2.74h-3.5V25.92h7.77c.32,0,.68,0,1.06,0a6.63,6.63,0,0,1,1.16.17,5.48,5.48,0,0,1,1.11.41,3.23,3.23,0,0,1,1.6,1.85A4.5,4.5,0,0,1,360.8,30m-9.45,1h3.92a8,8,0,0,0,.94,0,1.4,1.4,0,0,0,.58-.15.69.69,0,0,0,.3-.31,1.54,1.54,0,0,0,.08-.52,1.45,1.45,0,0,0-.08-.52.64.64,0,0,0-.3-.31,1.55,1.55,0,0,0-.58-.16c-.24,0-.55,0-.94,0h-3.92Z"/><polygon class="cls-1" points="364.7 25.92 375.63 25.92 375.63 28.98 371.86 28.98 371.86 36.82 368.36 36.82 368.36 28.98 364.7 28.98 364.7 25.92"/><polygon class="cls-1" points="282.87 47.98 277.66 54.53 277.66 58.88 274.18 58.88 274.18 54.53 268.96 47.98 273.25 47.98 275.91 51.59 278.57 47.98 282.87 47.98"/><path class="cls-1" d="M296.86,48h3.48v5.45a6.82,6.82,0,0,1-.29,2.15,4.64,4.64,0,0,1-.76,1.49,3.67,3.67,0,0,1-1.08,1,6.18,6.18,0,0,1-1.24.55,7.34,7.34,0,0,1-1.26.24c-.41,0-.78,0-1.1,0h-2.36c-.32,0-.69,0-1.1,0a7.06,7.06,0,0,1-1.25-.24,6,6,0,0,1-1.25-.55,3.67,3.67,0,0,1-1.08-1,4.85,4.85,0,0,1-.76-1.49,7.12,7.12,0,0,1-.29-2.15V48H290v5.45a4.08,4.08,0,0,0,.11,1,2.09,2.09,0,0,0,.35.77,1.61,1.61,0,0,0,.64.5,2.3,2.3,0,0,0,1,.18h2.87a2.14,2.14,0,0,0,.95-.18,1.45,1.45,0,0,0,.59-.5,2.21,2.21,0,0,0,.3-.77,5.64,5.64,0,0,0,.08-1Z"/><path class="cls-1" d="M310.15,51a2,2,0,0,0-.94.19,1.42,1.42,0,0,0-.58.5,2.16,2.16,0,0,0-.3.76,5.74,5.74,0,0,0,0,1.91,2.21,2.21,0,0,0,.3.77,1.42,1.42,0,0,0,.58.5,2.1,2.1,0,0,0,.94.18h2.73a4,4,0,0,0,.74-.06,1.27,1.27,0,0,0,.53-.22,1.25,1.25,0,0,0,.35-.43,2.73,2.73,0,0,0,.21-.71h3.66a5.51,5.51,0,0,1-.46,1.75,4.42,4.42,0,0,1-.82,1.22,3.92,3.92,0,0,1-1,.79,6.61,6.61,0,0,1-1.16.45,6.17,6.17,0,0,1-1.16.21c-.37,0-.71,0-1,0h-2.37c-.32,0-.69,0-1.1,0a6.53,6.53,0,0,1-1.26-.25,5.83,5.83,0,0,1-1.24-.54,3.93,3.93,0,0,1-1.08-1,4.85,4.85,0,0,1-.76-1.49,8.08,8.08,0,0,1,0-4.29,4.8,4.8,0,0,1,.76-1.5,4.06,4.06,0,0,1,1.08-1,5.41,5.41,0,0,1,1.24-.55,6.53,6.53,0,0,1,1.26-.25c.41,0,.78,0,1.1,0h2.37a9.38,9.38,0,0,1,1,0,6.13,6.13,0,0,1,1.16.2,6.61,6.61,0,0,1,1.16.45,4.14,4.14,0,0,1,1,.79,4.57,4.57,0,0,1,.82,1.22,5.58,5.58,0,0,1,.46,1.75h-3.66a1.54,1.54,0,0,0-.53-1.1,2.29,2.29,0,0,0-1.3-.31Z"/><path class="cls-1" d="M330.23,48,336,58.86h-3.84l-.8-1.6H325.6l-.81,1.6H321L326.74,48Zm-.32,6.41-1.43-2.85-1.42,2.85Z"/><polygon class="cls-1" points="337.21 47.96 348.14 47.96 348.14 51.01 344.37 51.01 344.37 58.86 340.87 58.86 340.87 51.01 337.21 51.01 337.21 47.96"/><path class="cls-1" d="M358.63,48l5.77,10.9h-3.84l-.8-1.6H354l-.81,1.6h-3.83L355.14,48Zm-.88-1.1h-2.29l2.11-3.47h3.57Zm.56,7.51-1.42-2.85-1.43,2.85Z"/><polygon class="cls-1" points="378.38 47.96 381.87 47.96 381.87 58.86 377.01 58.86 371.53 51.7 371.53 58.86 368.05 58.86 368.05 47.96 372.91 47.96 378.38 55.12 378.38 47.96"/><polygon class="cls-1" points="381.55 3.88 381.55 6.78 373.21 6.78 373.21 8.05 381.55 8.05 381.55 10.48 373.21 10.48 373.21 11.88 381.55 11.88 381.55 14.79 369.73 14.79 369.73 3.88 381.55 3.88"/><polygon class="cls-1" points="391.59 25.89 391.59 28.79 383.26 28.79 383.26 30.06 391.59 30.06 391.59 32.48 383.26 32.48 383.26 33.89 391.59 33.89 391.59 36.79 379.78 36.79 379.78 25.89 391.59 25.89"/><rect class="cls-1" x="202.35" width="1.99" height="62.76"/><path class="cls-1" d="M242.53,53.41a6.82,6.82,0,0,1-.29,2.15,4.85,4.85,0,0,1-.76,1.49,3.93,3.93,0,0,1-1.08,1,5.66,5.66,0,0,1-1.24.55,7.34,7.34,0,0,1-1.26.24c-.41,0-.78,0-1.1,0h-8.1V48h8.1c.32,0,.69,0,1.1,0a6.53,6.53,0,0,1,1.26.25,5.23,5.23,0,0,1,1.24.55,4.06,4.06,0,0,1,1.08,1,4.8,4.8,0,0,1,.76,1.5,6.75,6.75,0,0,1,.29,2.14M237,55.82a2.17,2.17,0,0,0,1-.18,1.46,1.46,0,0,0,.57-.5,2.21,2.21,0,0,0,.3-.77,5.74,5.74,0,0,0,0-1.91,2.24,2.24,0,0,0-.3-.76,1.46,1.46,0,0,0-.57-.5,2.17,2.17,0,0,0-1-.19h-4.79v4.81Z"/><polygon class="cls-1" points="258.04 47.96 258.04 50.86 249.71 50.86 249.71 52.13 258.04 52.13 258.04 54.55 249.71 54.55 249.71 55.96 258.04 55.96 258.04 58.86 246.23 58.86 246.23 47.96 258.04 47.96"/></g></g></svg>