<svg xmlns="http://www.w3.org/2000/svg" viewBox="0 0 386 125.2"><defs><style>.cls-1{fill:#59af31;}</style></defs><title>Recurso 2</title><g id="Capa_2" data-name="Capa 2"><g id="Capa_1-2" data-name="Capa 1"><polygon class="cls-1" points="299.21 125.2 322.64 125.2 322.64 90.79 275.45 37.48 244.33 37.48 299.21 102.6 299.21 125.2"/><polygon class="cls-1" points="326.33 71.06 386 0.14 355.39 0.14 310.45 53.55 326.33 71.06"/><polygon class="cls-1" points="203.66 125.2 180.23 125.2 180.23 23.43 167.12 0 295.37 0 275.84 23.43 203.66 23.43 203.66 125.2"/><polygon class="cls-1" points="159.97 23.43 116.53 23.43 103.58 0 146.88 0 159.97 23.43"/><polygon class="cls-1" points="60.24 0.17 81.78 0 136.49 98.09 110.92 98.09 71.28 34.48 25.39 125.2 0 125.2 60.24 0.17"/></g></g></svg>